# xmcd CD database file
#
# Track frame offsets:
#	150
#	19991
#	42803
#	64862
#	83406
#	105610
#	118480
#	138309
#	155584
#	177043
#	195974
#	216526
#	234149
#	250863
#
# Disc length: 3538 seconds
#
# Revision: 0
# Processed by: cddbd v1.5.2PL0 Copyright (c) Steve Scherf et al.
# Submitted via: CDex 1.70beta2
#
DISCID=b80dd00e
DTITLE=Charlie Watts Quintet - Long Ago and Far Away
DYEAR=1996
DGENRE=Jazz
TTITLE0=I've Got A Crush On You
TTITLE1=Long Ago (And Far Away)
TTITLE2=More Than You Know
TTITLE3=I Should Care
TTITLE4=Good Morning Heartache
TTITLE5=Someday (You'll Be Sorry)
TTITLE6=I Get Along Without You Very Well
TTITLE7=What's New
TTITLE8=Stairway To The Stars
TTITLE9=In The Still Of The Night
TTITLE10=All Or Nothing At All
TTITLE11=I'm In The Mood For Love
TTITLE12=In A Sentimental Mood
TTITLE13=Never Let Me Go
EXTD=YEAR: 1996
EXTT0=
EXTT1=
EXTT2=
EXTT3=
EXTT4=
EXTT5=
EXTT6=
EXTT7=
EXTT8=
EXTT9=
EXTT10=
EXTT11=
EXTT12=
EXTT13=
PLAYORDER=
